<?xml version="1.0" encoding="utf-8"?>
<!-- Generator: Adobe Illustrator 18.1.0, SVG Export Plug-In . SVG Version: 6.00 Build 0)  -->
<svg version="1.1" id="Layer_1" xmlns="http://www.w3.org/2000/svg" xmlns:xlink="http://www.w3.org/1999/xlink" x="0px" y="0px"
	 viewBox="0 0 110.3 111.3" enable-background="new 0 0 110.3 111.3" xml:space="preserve">
<path d="M28.1,26.1c1.7,0.3,2.2,0.2,2.9,0.2c0.9,0,1.4-0.1,1.4-0.1s0.3-0.7,0.4-0.9c0.2-0.6,0.6-1.4,0.7-1.9
	c0.3-0.9,0.6-2.7,0.4-3.9c0-0.2-0.2-0.5-0.4-0.6c-0.1-0.1-0.6-0.2-0.8-0.2c-0.2,0-0.6,0.5-0.6,0.5s-0.1-0.7-0.3-0.8
	c-0.2-0.1-0.7-0.2-0.9-0.1c-0.2,0.1-0.6,0.6-0.6,0.6s-0.2-0.6-0.4-0.7c-0.2-0.1-0.8-0.1-0.9,0c-0.2,0.2-0.4,0.6-0.4,0.6
	s-0.1-2.5-0.4-3.3c-0.1-0.3-0.1-0.6-0.4-0.7c-0.2-0.1-0.6,0-0.8,0.1c-0.2,0.2-0.3,0.7-0.3,1c-0.1,1.4,0.1,5.6,0.1,5.6
	s-0.8-1.4-1.1-1.8c-0.2-0.2-0.5-0.4-0.8-0.4c-0.2,0-0.5,0.3-0.6,0.5c-0.1,0.3,0.2,1,0.2,1.3c0.3,1.2,1.6,3.3,2.1,4.3
	c0.1,0.1,0.2,0.5,0.2,0.5S27.7,26,28.1,26.1z"/>
<path d="M26.8,26.2c0,0,1.3,0.2,1.7,0.3c0.5,0.1,1.4,0.2,1.9,0.2c0.5,0,1.9-0.1,1.9-0.1l0.1,1.5c0,0-1,0.2-1.3,0.2
	c-0.6,0-1.6-0.1-2.2-0.1c-0.4-0.1-1.2-0.2-1.6-0.3c-0.2-0.1-0.7-0.2-0.7-0.2"/>
<path fill="#FFFFFF" d="M21.6,103.2c-2.6-1.3-2.9-3.4-2.8-6c0.1-10,0-20.1,0-30.1c0-4.5,0-9,0-13.6c0-0.3,0-0.6,0-1
	c0-0.3-0.2-0.5-0.6-0.5c-0.4,0-0.6,0.1-0.7,0.5c0,0.4-0.1,0.8-0.1,1.2c0,5.5,0,11,0,16.4c0,1.9-1,3.3-2.6,3.7
	c-2.3,0.6-4.3-1.1-4.3-3.5c0-7.4,0-14.8,0-22.2c0-1.2,0-2.3,0-3.5c0.1-4.3,2.6-7.2,6.9-7.3c6.9-0.2,13.8-0.2,20.8,0
	c4.3,0.1,7,2.8,7,7.1c0.1,8.7,0.1,17.4,0.1,26c0,2.2-1.5,3.7-3.5,3.7c-1.9,0-3.4-1.6-3.4-3.7c0-5.7,0-11.4,0-17c0-0.3,0-0.6,0-0.8
	c0-0.3-0.2-0.5-0.5-0.5c-0.4,0-0.7,0.1-0.7,0.5c0,0.3,0,0.6,0,1c0,14.8,0,29.5,0,44.3c0,2.7-0.6,5.1-3.4,5.6c-0.6,0.1-2-0.2-2.2-0.3
	c-2-0.9-2.6-2.4-2.6-4.5c0-8.8,0-17.6,0-26.4c0-0.2,0-0.5,0-0.7c0-0.9-0.6-1.1-1.3-0.9c-0.9,0.2-0.8,0.9-0.8,1.6c0,9,0,17.9,0,26.9
	c0,1-0.2,1.9-0.8,2.7c-0.6,0.9-1.6,1.4-2.6,1.7C23,103.5,21.6,103.2,21.6,103.2z"/>
<path fill="#FFFFFF" d="M73.6,62.9c-4.2,0-8.4,0-12.6,0c-1.1,0-1.8-0.7-1.8-1.8c0-5.7,0-11.4-0.1-17.1c0-1.2,0-2.3,0-3.5
	c0-0.3,0.1-0.7-0.2-0.9c-0.4-0.1-0.6,0.3-0.8,0.5c-0.9,1-1.7,2.1-2.6,3.1c-0.7,0.8-1.4,0.9-2.1,0.1c-1.8-1.7-3.5-3.5-5.3-5.2
	c-0.7-0.7-0.7-1.4-0.1-2.1c2.4-3,4.7-6,7.6-8.6c0.7-0.6,1.5-1.1,2.4-1.4c2.5-0.8,5-1.5,7.6-2.3c1-0.3,1.8-0.3,2.7,0.4
	c0.9,0.7,2,1,3.1,1.1c2.9,0.2,5.8,0.5,8.4-1.5c0.6-0.4,1.2-0.4,1.8-0.2c2.8,0.8,5.6,1.7,8.4,2.6c0.7,0.2,1.2,0.6,1.7,1
	c3,2.6,5.4,5.8,7.9,8.8c0.6,0.7,0.6,1.4-0.1,2c-1.8,1.8-3.6,3.6-5.4,5.3c-0.7,0.7-1.4,0.7-2-0.1c-0.8-1-1.7-2-2.5-3.1
	c-0.2-0.3-0.5-0.8-0.9-0.7c-0.5,0.1-0.3,0.7-0.3,1.1c0,5-0.1,10,0,15c0,1.8-0.3,3.6-0.1,5.4c0.1,1.1-0.7,1.8-1.9,1.8
	C82.1,62.9,77.9,62.9,73.6,62.9z"/>
<path fill="#FFFFFF" d="M73.9,67.5c4.2,0,8.3,0,12.5,0c2,0,2.1,0,2.1,2c0,5.6,0,11.3,0.1,16.9c0,2.1-0.8,2.9-2.9,2.9
	c-2.9,0-5.8,0-8.6,0c-1.7,0-1.9-0.2-1.9-1.9c0-1.2,0-2.5,0-3.7c0-0.9-0.2-1.6-1.3-1.6c-1,0-1.1,0.9-1.1,1.7c-0.1,1.5,0.1,3-0.1,4.5
	c-0.1,0.8-0.5,1-1.2,1c-3.3,0-6.6,0-10,0c-1.2,0-2.2-1-2.2-2.2c0-5.6,0-11.2,0-16.8c0-0.2,0-0.4,0-0.6c0-2.2,0-2.2,2.2-2.2
	C65.5,67.5,69.7,67.5,73.9,67.5z"/>
<path fill="#FFFFFF" d="M26.7,8.8c1.1-0.1,1.9-0.1,2.9,0c7.5,0.7,11.6,8.9,9,15.7c-1.9,5-7.3,7.9-12.6,6.9
	c-5.2-0.9-9.1-5.5-9.3-10.7c-0.2-5.5,3.4-10.3,8.6-11.6C25.7,9,26.2,8.9,26.7,8.8z"/>
</svg>
