<?xml version="1.0" encoding="UTF-8" standalone="no"?>
<svg width="62px" height="62px" viewBox="0 0 62 62" version="1.1" xmlns="http://www.w3.org/2000/svg" xmlns:xlink="http://www.w3.org/1999/xlink">
    <!-- Generator: Sketch 3.7.2 (28276) - http://www.bohemiancoding.com/sketch -->
    <title>Group 3</title>
    <desc>Created with Sketch.</desc>
    <defs></defs>
    <g id="Page-1" stroke="none" stroke-width="1" fill="none" fill-rule="evenodd">
        <g id="Desktop" transform="translate(-779.000000, -24.000000)">
            <g id="Group-3" transform="translate(781.000000, 26.000000)">
                <ellipse id="Oval-1-Copy-3" stroke="#FFFFFF" stroke-width="3" cx="29" cy="29" rx="29" ry="29"></ellipse>
                <g id="metserv-copy-2" transform="translate(11.000000, 7.000000)" fill="#FFFFFF">
                    <g id="Layer_1">
                        <path d="M30.4668116,31.4022883 L30.4668116,41.7613272 C30.4668116,42.9226545 29.8657971,43.6659039 28.8024638,43.9446224 C27.924058,44.1768879 26.7682609,43.0620137 26.7682609,41.9935927 L26.7682609,34.9327231 L26.7682609,29.4048055 C26.7682609,29.0331808 26.7682609,28.7080092 26.2597101,28.7080092 C25.7973913,28.7080092 25.7511594,29.0331808 25.7511594,29.4048055 L25.7511594,41.9006865 C25.7511594,42.9691076 25.0576812,43.8052632 24.0405797,43.9910755 C23.3008696,44.1304348 22.1913043,43.2478261 22.0526087,42.3652174 C22.0063768,42.179405 22.0063768,41.9471396 22.0063768,41.7613272 L22.0063768,27.1750572 C22.0063768,25.1311213 22.0063768,23.0407323 22.0526087,20.9967963 L22.0526087,20.5322654 C22.0526087,20.3464531 21.913913,20.3 21.7289855,20.3 C21.544058,20.3 21.4515942,20.3929062 21.4515942,20.5787185 C21.4515942,20.7645309 21.4053623,20.9503432 21.4053623,21.1361556 L21.4053623,28.7544622 C21.4053623,30.0551487 20.1571014,30.7983982 19.0937681,30.2409611 C18.5389855,29.9622426 18.2615942,29.4512586 18.2615942,28.8473684 C18.2615942,24.8524027 18.2153623,20.810984 18.2615942,16.8160183 C18.3078261,14.7720824 19.6023188,13.517849 21.6365217,13.517849 C24.734058,13.4713959 27.8315942,13.4713959 30.9753623,13.517849 C32.8708696,13.517849 34.1653623,14.8185355 34.2578261,16.7231121 C34.3965217,20.7180778 34.304058,24.7594966 34.304058,28.7544622 C34.304058,29.683524 33.7955072,30.2874142 33.0557971,30.4267735 C32.4085507,30.5661327 31.7150725,30.2874142 31.3452174,29.683524 C31.114058,29.3118993 31.114058,28.8938215 31.114058,28.4757437 L31.114058,20.7645309 C31.114058,20.5787185 31.2065217,20.3 30.9291304,20.2535469 C30.5592754,20.1606407 30.5130435,20.4393593 30.5130435,20.7180778 L30.5130435,24.0627002 C30.4668116,26.4782609 30.4668116,28.9402746 30.4668116,31.4022883 L30.4668116,31.4022883 Z" id="Shape"></path>
                        <path d="M26.2134783,10.8235698 C23.2546377,10.7306636 20.9430435,8.36155606 21.0355072,5.43501144 C21.127971,2.41556064 23.4857971,0.139359268 26.4446377,0.232265446 C29.7733333,0.371624714 31.6226087,3.0194508 31.5301449,5.76018307 C31.4376812,8.59382151 28.9873913,10.916476 26.2134783,10.8235698 L26.2134783,10.8235698 Z" id="Shape"></path>
                        <path d="M11.0031884,9.9409611 L11.0031884,10.2196796 C11.0031884,11.6597254 11.0031884,11.6597254 12.3901449,11.7526316 C12.8062319,11.7990847 13.1298551,11.9384439 13.176087,12.4029748 C13.2223188,12.9139588 12.8986957,13.1462243 12.4363768,13.1926773 C12.2514493,13.2391304 12.0202899,13.1926773 11.8353623,13.1926773 C11.3268116,13.1462243 10.9569565,13.1462243 10.9569565,13.8894737 C10.9569565,14.58627 11.2343478,14.7720824 11.8353623,14.6791762 C12.0202899,14.6327231 12.2514493,14.6327231 12.4363768,14.6791762 C12.8524638,14.7256293 13.176087,14.9114416 13.176087,15.3759725 C13.176087,15.8405034 12.8986957,16.0727689 12.4826087,16.0727689 L11.8815942,16.0727689 C11.2805797,16.0263158 11.0031884,16.119222 10.9569565,16.8624714 C10.9569565,17.6521739 11.3268116,17.6057208 11.8815942,17.6057208 C12.1127536,17.6057208 12.343913,17.5592677 12.5750725,17.6057208 C12.9449275,17.6521739 13.176087,17.9308924 13.176087,18.3489703 C13.176087,18.720595 12.9911594,18.9528604 12.6213043,18.9993135 L12.4363768,18.9993135 C11.0031884,19.1851259 11.0031884,19.1851259 11.0031884,20.6716247 C11.0031884,22.1581236 11.0494203,23.6446224 11.0031884,25.1311213 C11.0031884,25.7350114 11.1881159,26.0601831 11.6504348,26.4318078 C16.1811594,29.7764302 15.6263768,36.3727689 10.6333333,38.9741419 C6.51869565,41.110984 1.24826087,38.5560641 0.23115942,34.0501144 C-0.462318841,30.8448513 0.647246377,28.3828375 3.09753623,26.4318078 C3.60608696,26.01373 3.74478261,25.6885584 3.74478261,25.0846682 C3.69855072,19.8354691 3.74478261,14.5398169 3.74478261,9.29061785 C3.74478261,6.96796339 5.2242029,5.34210526 7.35086957,5.34210526 C9.33884058,5.34210526 10.9107246,6.82860412 11.0031884,8.82608696 C11.0494203,9.19771167 11.0031884,9.56933638 11.0031884,9.9409611 L11.0031884,9.9409611 L11.0031884,9.9409611 Z M9.57,17.4663616 L9.57,9.01189931 C9.57,8.68672769 9.57,8.40800915 9.43130435,8.08283753 C8.96898551,7.15377574 7.95188406,6.59633867 7.07347826,6.73569794 C5.91768116,6.96796339 5.17797101,7.85057208 5.17797101,9.01189931 L5.17797101,25.5956522 C5.17797101,26.4782609 4.94681159,26.9892449 4.20710145,27.4537757 C2.08043478,28.7544622 1.06333333,31.2629291 1.61811594,33.7249428 C2.12666667,36.0475973 4.29956522,37.998627 6.70362319,38.2773455 C9.47753623,38.6025172 12.0665217,36.9302059 13.0373913,34.0965675 C13.8695652,31.6810069 12.8062319,28.7544622 10.4946377,27.3144165 C9.8473913,26.9427918 9.57,26.4782609 9.57,25.6885584 C9.61623188,23.0407323 9.57,20.2535469 9.57,17.4663616 L9.57,17.4663616 Z" id="Shape"></path>
                        <path d="M8.09057971,19.0457666 C8.09057971,21.7400458 8.13681159,24.4343249 8.09057971,27.1286041 C8.09057971,27.8254005 8.27550725,28.1505721 8.92275362,28.3828375 C11.2805797,29.2654462 12.3901449,31.8668192 11.4192754,34.1894737 C10.4946377,36.419222 7.81318841,37.487643 5.59405797,36.4656751 C3.97594203,35.7224256 2.95884058,34.0965675 3.00507246,32.3313501 C3.05130435,30.6125858 4.16086957,28.9402746 5.82521739,28.3828375 C6.56492754,28.1505721 6.70362319,27.7789474 6.70362319,27.082151 C6.6573913,21.6935927 6.70362319,16.3050343 6.70362319,10.916476 C6.70362319,10.6377574 6.70362319,10.405492 6.74985507,10.1267735 C6.84231884,9.75514874 7.02724638,9.5228833 7.48956522,9.5228833 C7.90565217,9.56933638 8.04434783,9.80160183 8.09057971,10.1267735 C8.13681159,10.405492 8.09057971,10.7306636 8.09057971,11.0093822 C8.09057971,13.7036613 8.09057971,16.3514874 8.09057971,19.0457666 L8.09057971,19.0457666 Z" id="Shape"></path>
                    </g>
                </g>
            </g>
        </g>
    </g>
</svg>