<?xml version="1.0" encoding="utf-8"?>
<!-- Generator: Adobe Illustrator 18.1.0, SVG Export Plug-In . SVG Version: 6.00 Build 0)  -->
<svg version="1.1" id="Layer_1" xmlns="http://www.w3.org/2000/svg" xmlns:xlink="http://www.w3.org/1999/xlink" x="0px" y="0px"
	 viewBox="0 0 110.3 111.3" enable-background="new 0 0 110.3 111.3" xml:space="preserve">
<path fill="#FFFFFF" d="M83.9,74.6c0,7.4,0,14.9,0,22.3c0,2.5-1.3,4.1-3.6,4.7c-1.9,0.5-4.4-1.9-4.4-4.2c0-5.1,0-10.2,0-15.2
	c0-4,0-7.9,0-11.9c0-0.8,0-1.5-1.1-1.5c-1,0-1.1,0.7-1.1,1.5c0,9,0,17.9,0,26.9c0,2.3-1.5,4.1-3.7,4.5c-1.6,0.3-4-1.6-4.3-3.5
	c-0.1-0.4-0.1-0.9-0.1-1.3c0-10.5,0-21,0-31.4c0-4.4,0-8.9,0.1-13.3c0-0.3,0-0.6,0-1c0-0.4-0.3-0.5-0.7-0.5c-0.4,0-0.6,0.2-0.6,0.6
	c0,0.4-0.1,0.8-0.1,1.2c0,5.5,0,11,0,16.4c0,2.8-2.7,4.4-5,3.2c-1.2-0.6-1.8-1.7-1.8-3c0-8.6-0.1-17.3,0-25.9
	c0.1-4.4,2.9-7.1,7.3-7.1c6.7-0.1,13.4-0.1,20.2,0c4.1,0,6.9,2.8,7.1,6.9c0.3,8.6,0.1,17.3,0.1,25.9c0,2-1.1,3.3-2.7,3.6
	c-1.4,0.3-2.9-0.3-3.7-1.6c-0.5-0.8-0.5-1.7-0.5-2.6c0-5.5,0-11,0-16.6c0-0.4,0.2-1-0.4-1.1c-0.8-0.2-0.9,0.4-0.9,1
	c0,2.4,0,4.8,0,7.2C83.9,64,83.9,69.3,83.9,74.6z"/>
<path fill="#FFFFFF" d="M74.7,30.3c-6.4-0.2-11.4-5.3-11.2-11.6c0.2-6.5,5.3-11.4,11.7-11.2c7.2,0.3,11.2,6,11,11.9
	C86,25.5,80.7,30.5,74.7,30.3z"/>
<path fill="#FFFFFF" d="M41.8,28.4c0,0.2,0,0.4,0,0.6c0,3.1,0,3.1,3,3.3c0.9,0.1,1.6,0.4,1.7,1.4c0.1,1.1-0.6,1.6-1.6,1.7
	c-0.4,0.1-0.9,0-1.3,0c-1.1-0.1-1.9-0.1-1.9,1.5c0,1.5,0.6,1.9,1.9,1.7c0.4-0.1,0.9-0.1,1.3,0c0.9,0.1,1.6,0.5,1.6,1.5
	c0,1-0.6,1.5-1.5,1.5c-0.4,0-0.9,0-1.3,0c-1.3-0.1-1.9,0.1-2,1.7c0,1.7,0.8,1.6,2,1.6c0.5,0,1-0.1,1.5,0c0.8,0.1,1.3,0.7,1.3,1.6
	c0,0.8-0.4,1.3-1.2,1.4c-0.1,0-0.2,0-0.4,0c-3.1,0.4-3.1,0.4-3.1,3.6c0,3.2,0.1,6.4,0,9.6c0,1.3,0.4,2,1.4,2.8
	c9.8,7.2,8.6,21.4-2.2,27c-8.9,4.6-20.3-0.9-22.5-10.6c-1.5-6.9,0.9-12.2,6.2-16.4c1.1-0.9,1.4-1.6,1.4-2.9c-0.1-11.3,0-22.7,0-34
	c0-5,3.2-8.5,7.8-8.5c4.3,0,7.7,3.2,7.9,7.5C41.9,26.8,41.8,27.6,41.8,28.4C41.8,28.4,41.8,28.4,41.8,28.4z M38.7,44.6
	c0-6.1,0-12.1,0-18.2c0-0.7,0-1.3-0.3-2c-1-2-3.2-3.2-5.1-2.9c-2.5,0.5-4.1,2.4-4.1,4.9c0,11.9,0,23.8,0,35.7c0,1.9-0.5,3-2.1,4
	c-4.6,2.8-6.8,8.2-5.6,13.5c1.1,5,5.8,9.2,11,9.8c6,0.7,11.6-2.9,13.7-9c1.8-5.2-0.5-11.5-5.5-14.6c-1.4-0.8-2-1.8-2-3.5
	C38.8,56.6,38.7,50.6,38.7,44.6z"/>
<path fill="#FFFFFF" d="M35.5,48c0,5.8,0.1,11.6,0,17.4c0,1.5,0.4,2.2,1.8,2.7c5.1,1.9,7.5,7.5,5.4,12.5c-2,4.8-7.8,7.1-12.6,4.9
	c-3.5-1.6-5.7-5.1-5.6-8.9c0.1-3.7,2.5-7.3,6.1-8.5c1.6-0.5,1.9-1.3,1.9-2.8c-0.1-11.6,0-23.2,0-34.8c0-0.6,0-1.1,0.1-1.7
	c0.2-0.8,0.6-1.3,1.6-1.3c0.9,0.1,1.2,0.6,1.3,1.3c0.1,0.6,0,1.3,0,1.9C35.5,36.5,35.5,42.2,35.5,48z"/>
</svg>
