<?xml version="1.0" encoding="UTF-8" standalone="no"?>
<svg width="62px" height="62px" viewBox="0 0 62 62" version="1.1" xmlns="http://www.w3.org/2000/svg" xmlns:xlink="http://www.w3.org/1999/xlink">
    <!-- Generator: Sketch 3.7.2 (28276) - http://www.bohemiancoding.com/sketch -->
    <title>Group 2</title>
    <desc>Created with Sketch.</desc>
    <defs></defs>
    <g id="Page-1" stroke="none" stroke-width="1" fill="none" fill-rule="evenodd">
        <g id="Desktop" transform="translate(-857.000000, -25.000000)">
            <g id="Group-2" transform="translate(859.000000, 27.000000)">
                <ellipse id="Oval-1-Copy-3" stroke="#FFFFFF" stroke-width="3" cx="29" cy="29" rx="29" ry="29"></ellipse>
                <g id="others-copy-2" transform="translate(9.000000, 10.000000)" fill="#FFFFFF">
                    <g id="Layer_1">
                        <g id="Group">
                            <g id="Shape">
                                <path d="M3.18928969,23.4638727 L3.18928969,15.785567 L3.18928969,15.3566114 C3.18928969,15.2279247 3.10309268,15.1421336 2.97379715,15.1421336 C2.84450162,15.1421336 2.7583046,15.2279247 2.7583046,15.3566114 L2.7583046,15.785567 L2.7583046,21.2333035 C2.7583046,22.0912147 2.32731951,22.648857 1.59464485,22.648857 C0.861970188,22.648857 0.387886584,22.0912147 0.387886584,21.2333035 L0.387886584,12.9115643 C0.387886584,11.0670551 1.33605379,10.1662483 3.14619118,10.1662483 L9.6540661,10.1662483 C11.2056124,10.1662483 12.1106811,10.9383684 12.3261737,12.4397131 C12.3692722,12.8257732 12.4123707,13.2118333 12.4123707,13.5549978 L12.4123707,21.3190946 C12.4123707,22.0912147 11.8520901,22.6917526 11.1625139,22.6917526 C10.4729378,22.6917526 9.95575567,22.1341103 9.95575567,21.3190946 L9.95575567,15.6997759 L9.95575567,15.3995069 C9.95575567,15.2708203 9.91265716,15.1850291 9.74026312,15.1850291 C9.61096759,15.1850291 9.52477057,15.2708203 9.48167206,15.3995069 L9.48167206,15.8284626 L9.48167206,31.185074 C9.48167206,31.9571941 9.13688399,32.4719408 8.44730784,32.6864186 C7.54223914,32.943792 6.68026895,32.3003586 6.68026895,31.3137606 L6.68026895,22.262797 L6.68026895,21.8338413 C6.68026895,21.6193635 6.55097343,21.5335724 6.33548088,21.5335724 C6.11998833,21.5335724 5.9906928,21.6193635 5.94759429,21.7909458 C5.90449578,21.962528 5.94759429,22.0912147 5.94759429,22.262797 L5.94759429,31.2708651 C5.94759429,32.0429852 5.5166092,32.557732 4.82703305,32.7293142 C4.18055541,32.8580009 3.53407777,32.5148364 3.27548671,31.9142985 C3.18928969,31.6998207 3.18928969,31.4424473 3.18928969,31.2279695 C3.18928969,28.5255491 3.18928969,25.9947109 3.18928969,23.4638727 L3.18928969,23.4638727 L3.18928969,23.4638727 Z"></path>
                                <path d="M2.41351653,4.28955625 C2.45661503,1.88740475 4.22365392,0.3431645 6.33548088,0.3431645 C8.40420933,0.3431645 10.2143467,1.84450919 10.2574452,4.28955625 C10.3005437,6.47722994 8.49040635,8.23594801 6.33548088,8.19305244 C4.18055541,8.19305244 2.45661503,6.43433438 2.41351653,4.28955625 L2.41351653,4.28955625 Z"></path>
                            </g>
                            <g transform="translate(12.929553, 0.000000)" id="Shape">
                                <g transform="translate(0.000000, 3.002689)">
                                    <path d="M11.0332184,27.3244733 L11.0332184,36.2896459 C11.0332184,37.2762438 10.6022333,37.8767817 9.69716461,38.1770506 C8.92139144,38.434424 7.84392871,37.5336172 7.8008302,36.5899148 L7.8008302,34.616719 L7.8008302,25.694442 L7.8008302,25.2654863 C7.75773169,25.0510085 7.67153467,24.9223218 7.45604212,24.9223218 C7.19745107,24.9223218 7.02505703,25.008113 6.98195852,25.2225908 C6.8957615,25.394173 6.8957615,25.5657553 6.8957615,25.7373375 L6.8957615,36.3325415 C6.8957615,37.2762438 6.37857939,37.9625728 5.47351069,38.1341551 C4.78393454,38.3057373 3.74957032,37.4907216 3.6633733,36.7186015 C3.62027479,36.5470193 3.6633733,36.3325415 3.6633733,36.1609592 L3.6633733,18.3164052 L3.6633733,17.9732407 C3.6633733,17.8016584 3.6633733,17.6300762 3.40478224,17.5871806 C3.14619118,17.5871806 3.10309268,17.7587629 3.10309268,17.9732407 L3.10309268,18.4021963 L3.10309268,24.8365307 C3.10309268,25.7802331 2.54281205,26.4236665 1.72394038,26.4236665 C0.905068697,26.4236665 0.387886584,25.7802331 0.387886584,24.8794263 L0.387886584,14.7989691 C0.387886584,12.8686688 1.50844783,11.7533841 3.44788075,11.7104886 L11.421105,11.7104886 C13.1881439,11.7104886 14.3949021,12.8257732 14.3949021,14.5844913 C14.4380006,18.0590318 14.4380006,21.5335724 14.3949021,25.008113 C14.3949021,25.8660242 13.791523,26.4236665 13.0157498,26.4236665 C12.2399767,26.4236665 11.679696,25.8231286 11.6365975,25.008113 L11.6365975,24.1930973 L11.6365975,18.0161363 C11.6365975,17.844554 11.679696,17.5871806 11.3780065,17.5871806 C11.0763169,17.5871806 11.0763169,17.8016584 11.0763169,18.0161363 L11.0763169,18.1877185 C11.0332184,21.1904079 11.0332184,24.2788884 11.0332184,27.3244733 L11.0332184,27.3244733 Z"></path>
                                    <path d="M7.3698451,9.43702376 C4.82703305,9.43702376 2.7583046,7.37803675 2.7583046,4.84719857 C2.7583046,2.31636038 4.82703305,0.257373375 7.3698451,0.257373375 C9.91265716,0.257373375 11.9813856,2.31636038 11.9813856,4.84719857 C11.9813856,7.37803675 9.91265716,9.43702376 7.3698451,9.43702376 L7.3698451,9.43702376 Z"></path>
                                </g>
                                <g transform="translate(15.084478, 0.000000)">
                                    <path d="M9.39547504,23.4638727 L9.39547504,31.0992828 C9.39547504,32.0429852 8.83519442,32.6864186 8.01632274,32.6864186 C7.19745107,32.6864186 6.63717044,32.0429852 6.63717044,31.0992828 L6.63717044,22.1341103 L6.63717044,21.7909458 C6.63717044,21.6193635 6.55097343,21.4477813 6.33548088,21.4477813 C6.11998833,21.4477813 5.94759429,21.5335724 5.90449578,21.7480502 C5.86139728,21.8767369 5.90449578,22.0483191 5.90449578,22.2199014 L5.90449578,31.1421784 C5.90449578,32.0858808 5.34421516,32.7293142 4.52534348,32.6864186 C3.70647181,32.6864186 3.14619118,32.0429852 3.14619118,31.0992828 L3.14619118,15.8713581 L3.14619118,15.5710892 C3.14619118,15.3995069 3.18928969,15.1850291 2.88760013,15.1850291 C2.62900907,15.1850291 2.67210758,15.3995069 2.67210758,15.5710892 L2.67210758,15.8713581 L2.67210758,21.276199 C2.67210758,22.1341103 2.19802398,22.648857 1.46534932,22.648857 C0.775773169,22.648857 0.215492547,22.0483191 0.215492547,21.2333035 L0.215492547,12.8257732 C0.215492547,11.1957418 1.24985677,10.1233528 2.93069864,10.0804572 L9.6540661,10.0804572 C11.2487109,10.0804572 12.1968782,10.981264 12.2399767,12.5255043 C12.2830752,15.4424025 12.2830752,18.4021963 12.2830752,21.3190946 C12.2830752,22.0912147 11.8520901,22.5630659 11.2056124,22.6059615 C10.6453318,22.7346481 10.0850512,22.3914836 9.91265716,21.8767369 C9.82646014,21.6193635 9.82646014,21.3190946 9.82646014,21.0617212 L9.82646014,15.6997759 L9.82646014,15.3566114 C9.82646014,15.2279247 9.74026312,15.1850291 9.6540661,15.1421336 C9.52477057,15.1421336 9.39547504,15.1850291 9.39547504,15.3137158 L9.39547504,15.7426714 L9.39547504,23.4638727 L9.39547504,23.4638727 Z"></path>
                                    <path d="M10.1281497,4.28955625 C10.1281497,6.43433438 8.40420933,8.19305244 6.24928386,8.19305244 C4.09435839,8.19305244 2.284221,6.43433438 2.32731951,4.28955625 C2.37041802,1.84450919 4.18055541,0.3431645 6.24928386,0.3431645 C8.36111082,0.3431645 10.1281497,1.93030031 10.1281497,4.28955625 L10.1281497,4.28955625 Z"></path>
                                </g>
                            </g>
                        </g>
                    </g>
                </g>
            </g>
        </g>
    </g>
</svg>