<?xml version="1.0" encoding="utf-8"?>
<!-- Generator: Adobe Illustrator 18.1.0, SVG Export Plug-In . SVG Version: 6.00 Build 0)  -->
<svg version="1.1" id="Layer_1" xmlns="http://www.w3.org/2000/svg" xmlns:xlink="http://www.w3.org/1999/xlink" x="0px" y="0px"
	 viewBox="0 0 110.3 111.3" enable-background="new 0 0 110.3 111.3" xml:space="preserve">
<g>
	<g>
		<path fill="#FFFFFF" d="M16.4,62.7c0-6,0-11.9,0-17.9c0-0.3,0-0.6,0-1c0-0.3-0.2-0.5-0.5-0.5c-0.3,0-0.5,0.2-0.5,0.5
			c0,0.3,0,0.6,0,1c0,4.2,0,8.5,0,12.7c0,2-1,3.3-2.7,3.3c-1.7,0-2.8-1.3-2.8-3.3c0-6.5,0-13,0-19.4c0-4.3,2.2-6.4,6.4-6.4
			c5,0,10.1,0,15.1,0c3.6,0,5.7,1.8,6.2,5.3c0.1,0.9,0.2,1.8,0.2,2.6c0,6,0,12.1,0,18.1c0,1.8-1.3,3.2-2.9,3.2
			c-1.6,0-2.8-1.3-2.8-3.2c0-4.4,0-8.7,0-13.1c0-0.2,0-0.5,0-0.7c0-0.3-0.1-0.5-0.5-0.5c-0.3,0-0.5,0.2-0.6,0.5c0,0.3,0,0.6,0,1
			c0,11.9,0,23.8,0,35.8c0,1.8-0.8,3-2.4,3.5c-2.1,0.6-4.1-0.9-4.1-3.2c0-7,0-14.1,0-21.1c0-0.3,0-0.6,0-1c0-0.5-0.3-0.7-0.8-0.7
			c-0.5,0-0.8,0.2-0.9,0.6c-0.1,0.4,0,0.7,0,1.1c0,7,0,14,0,21c0,1.8-1,3-2.6,3.4c-1.5,0.3-3-0.5-3.6-1.9c-0.2-0.5-0.2-1.1-0.2-1.6
			C16.4,74.5,16.4,68.6,16.4,62.7C16.4,62.7,16.4,62.7,16.4,62.7z"/>
		<path fill="#FFFFFF" d="M14.6,18c0.1-5.6,4.2-9.2,9.1-9.2c4.8,0,9,3.5,9.1,9.2c0.1,5.1-4.1,9.2-9.1,9.1C18.7,27.1,14.7,23,14.6,18
			z"/>
	</g>
	<g>
		<g>
			<path fill="#FFFFFF" d="M64.6,78.7c0,7,0,13.9,0,20.9c0,2.3-1,3.7-3.1,4.4c-1.8,0.6-4.3-1.5-4.4-3.7c0-1.5,0-3,0-4.6
				c0-6.9,0-13.8,0-20.8c0-0.3,0-0.6,0-1c-0.1-0.5-0.3-0.8-0.8-0.8c-0.6,0-1,0.2-1.1,0.7C55,74.2,55,74.6,55,75c0,8.2,0,16.5,0,24.7
				c0,2.2-1.2,3.8-3.3,4.2c-1.6,0.4-4-1.5-4.2-3.3c-0.1-0.4,0-0.9,0-1.3c0-13.9,0-27.8,0-41.6c0-0.3,0-0.6,0-0.8
				c0-0.4,0-0.8-0.6-0.9c-0.6,0-0.7,0.4-0.7,0.9c0,0.3,0,0.6,0,1c0,5,0,10,0,15c0,2.2-1.3,3.7-3.2,3.7c-1.9,0-3.1-1.5-3.1-3.6
				c0-7.8,0-15.7,0-23.5c0-4.5,2.6-7.1,7.1-7.2c6.2,0,12.3,0,18.5,0c4.1,0,6.9,2.6,6.9,6.7c0.1,8.1,0.1,16.2,0,24.3
				c0,2-1.4,3.3-3.2,3.3c-1.8,0-3.1-1.4-3.2-3.3c0-0.6,0-1.3,0-1.9c0-4.8,0-9.6,0-14.4c0-0.4,0.1-1-0.6-1c-0.7,0-0.7,0.5-0.7,1
				c0,0.1,0,0.2,0,0.4C64.6,64.4,64.6,71.6,64.6,78.7z"/>
			<path fill="#FFFFFF" d="M56.1,37c-5.9,0-10.7-4.8-10.7-10.7c0-5.9,4.8-10.7,10.7-10.7c5.9,0,10.7,4.8,10.7,10.7
				C66.8,32.2,62,37,56.1,37z"/>
		</g>
		<g>
			<path fill="#FFFFFF" d="M95.8,62.7c0,5.9,0,11.8,0,17.8c0,2.2-1.3,3.7-3.2,3.7c-1.9,0-3.2-1.5-3.2-3.7c0-7,0-13.9,0-20.9
				c0-0.3,0-0.6,0-0.8c0-0.4-0.2-0.8-0.7-0.8c-0.5,0-0.9,0.2-1,0.7c-0.1,0.3,0,0.7,0,1.1c0,6.9,0,13.8,0,20.8c0,2.2-1.3,3.7-3.2,3.6
				c-1.9,0-3.2-1.5-3.2-3.7c0-11.8,0-23.7,0-35.5c0-0.2,0-0.5,0-0.7c0-0.4,0.1-0.9-0.6-0.9c-0.6,0-0.5,0.5-0.5,0.9
				c0,0.2,0,0.5,0,0.7c0,4.2,0,8.4,0,12.6c0,2-1.1,3.2-2.8,3.2c-1.6,0-2.9-1.4-2.9-3.3c0-6.5,0-13,0-19.6c0-3.8,2.4-6.3,6.3-6.4
				c5.2,0,10.4,0,15.6,0c3.7,0,5.9,2.1,6,5.7c0.1,6.8,0.1,13.7,0.1,20.5c0,1.8-1,2.9-2.5,3C98.7,61,97.4,60.2,97,59
				c-0.2-0.6-0.2-1.3-0.2-1.9c0-4.2,0-8.3,0-12.5c0-0.3,0-0.6,0-0.8c0-0.3-0.2-0.4-0.4-0.5c-0.3,0-0.6,0.1-0.6,0.4c0,0.3,0,0.6,0,1
				C95.8,50.7,95.8,56.7,95.8,62.7z"/>
			<path fill="#FFFFFF" d="M97.5,18c0,5-4,9.1-9,9.1c-5,0-9.2-4.1-9.1-9.1c0.1-5.7,4.3-9.2,9.1-9.2C93.4,8.8,97.5,12.5,97.5,18z"/>
		</g>
	</g>
</g>
</svg>
