<?xml version="1.0" encoding="utf-8"?>
<!-- Generator: Adobe Illustrator 18.1.0, SVG Export Plug-In . SVG Version: 6.00 Build 0)  -->
<svg version="1.1" id="Layer_1" xmlns="http://www.w3.org/2000/svg" xmlns:xlink="http://www.w3.org/1999/xlink" x="0px" y="0px"
	 viewBox="0 0 84.5 103.8" enable-background="new 0 0 84.5 103.8" xml:space="preserve">
<g id="Dh8bhL.tif">
	<g>
		<path fill="#FEDB63" d="M7.6,39.9c0.1,0,0.2,0,0.4-0.1c0.6,2.7,1.8,5.1,2.7,7.6c3.4,9,6.8,18.1,10.4,27c2,5,0.9,4.8,6.7,4.7
			c0.3,0,0.6,0,0.8,0c1.2-0.1,2.1-0.5,2.5-1.8c1.6-4.9,3.2-9.9,4.9-14.8c1.6-4.8,3.2-9.6,4.9-14.6c1,2.9,2,5.6,3,8.3
			c2.5,7.1,5.1,14.1,7.6,21.2c0.5,1.3,1.4,1.7,2.5,1.7c1.3,0.1,2.6,0,3.8,0c1.2,0,2-0.5,2.5-1.7c3.5-9.1,6.9-18.1,10.4-27.1
			c1.2-3,2.4-6.1,3.6-9.1c0,3.5-0.5,7-1.1,10.5c-1.1,6.5-3,12.8-6,18.8c-3.9,7.9-9,14.9-17.4,18.8c-2,1-4.2,1.5-6.4,1.8
			c-0.7,0.1-0.9,0.4-0.9,1.1c0,1.2,0.2,2.3-0.1,3.5c-0.2,0.8-0.5,1.5-1.4,1.5c-0.9,0-1.1-0.8-1.3-1.5c-0.3-1.2-0.1-2.4-0.1-3.6
			c0-0.7-0.2-0.9-0.9-1c-5.5-0.7-10.2-3.2-14.1-7c-6.4-6.1-10.4-13.7-13.1-22c-1.9-5.9-3-11.9-3.6-18c0-0.2,0-0.4-0.2-0.5
			C7.6,42.4,7.6,41.2,7.6,39.9z"/>
		<path fill="#FEDB63" d="M39.5,39.1c0-2.9,0.1-5.7,0.1-8.6c0-4.7,0-9.5,0-14.2c0-4.3,2.6-7.8,6.8-9c0.1,0,0.2-0.1,0.4-0.1
			c1.2-0.3,2.4-0.3,3.6-0.1c1.7,0.3,3.2,1.2,4.5,2.4c1.7,1.7,2.7,3.7,2.9,6c0.1,1.2-0.4,2-1.4,2.1c-1,0.1-1.5-0.5-1.7-1.7
			c-0.3-3.1-2.5-5.4-5.2-5.7c-3.1-0.3-5.7,1.4-6.6,4.2c-0.1,0.4-0.2,0.9-0.2,1.4c0,7.5,0,15.1,0,22.6c0,0.3,0.1,0.6,0.1,0.8
			C41.6,39.1,40.5,39.1,39.5,39.1z"/>
		<path fill="#FEC106" d="M39.5,39.1c1.1,0,2.1,0,3.2,0c1.2-0.1,1.5,0.8,1.8,1.7c3.8,10.5,7.5,20.9,11.3,31.4c0.1,0.3,0.2,0.5,0.4,1
			c0.9-2.4,1.7-4.7,2.5-6.9c3.1-8.6,6.3-17.2,9.4-25.7c0.4-1,0.9-1.5,2-1.4c0.8,0.1,1.6,0,2.4,0c2.1,0,2.2,0.2,1.8,2.2
			c-1.2,3-2.4,6.1-3.6,9.1c-3.5,9-7,18.1-10.4,27.1c-0.4,1.2-1.3,1.7-2.5,1.7c-1.3,0-2.6,0.1-3.8,0c-1.2-0.1-2.1-0.4-2.5-1.7
			c-2.5-7.1-5-14.1-7.6-21.2c-1-2.7-1.9-5.4-3-8.3c-1.7,5-3.3,9.8-4.9,14.6c-1.6,4.9-3.3,9.8-4.9,14.8c-0.4,1.3-1.2,1.8-2.5,1.8
			c-0.3,0-0.6,0-0.8,0c-5.8,0-4.8,0.3-6.7-4.7c-3.5-9-6.9-18-10.4-27c-1-2.5-2.2-5-2.7-7.6c0.2-0.6,0.7-0.7,1.3-0.7
			c1.2,0,2.3,0,3.5,0c1,0,1.6,0.4,1.9,1.4c3.3,9.2,6.7,18.3,10,27.4c0.6,1.7,1.3,3.4,2,5.4c0.9-2.7,1.7-5.1,2.5-7.5
			c2.8-8.4,5.6-16.7,8.3-25.1C37.9,39.7,38.3,39,39.5,39.1z"/>
	</g>
</g>
</svg>
