<?xml version="1.0" encoding="utf-8"?>
<!-- Generator: Adobe Illustrator 18.1.0, SVG Export Plug-In . SVG Version: 6.00 Build 0)  -->
<svg version="1.1" id="Layer_1" xmlns="http://www.w3.org/2000/svg" xmlns:xlink="http://www.w3.org/1999/xlink" x="0px" y="0px"
	 viewBox="0 0 176.5 103.8" enable-background="new 0 0 176.5 103.8" xml:space="preserve">
<g id="Dh8bhL.tif">
	<g>
		<path fill="#FEDB63" d="M7.6,39.9c0.1,0,0.2,0,0.4-0.1c0.6,2.7,1.8,5.1,2.7,7.6c3.4,9,6.8,18.1,10.4,27c2,5,0.9,4.8,6.7,4.7
			c0.3,0,0.6,0,0.8,0c1.2-0.1,2.1-0.5,2.5-1.8c1.6-4.9,3.2-9.9,4.9-14.8c1.6-4.8,3.2-9.6,4.9-14.6c1,2.9,2,5.6,3,8.3
			c2.5,7.1,5.1,14.1,7.6,21.2c0.5,1.3,1.4,1.7,2.5,1.7c1.3,0.1,2.6,0,3.8,0c1.2,0,2-0.5,2.5-1.7c3.5-9.1,6.9-18.1,10.4-27.1
			c1.2-3,2.4-6.1,3.6-9.1c0,3.5-0.5,7-1.1,10.5c-1.1,6.5-3,12.8-6,18.8c-3.9,7.9-9,14.9-17.4,18.8c-2,1-4.2,1.5-6.4,1.8
			c-0.7,0.1-0.9,0.4-0.9,1.1c0,1.2,0.2,2.3-0.1,3.5c-0.2,0.8-0.5,1.5-1.4,1.5c-0.9,0-1.1-0.8-1.3-1.5c-0.3-1.2-0.1-2.4-0.1-3.6
			c0-0.7-0.2-0.9-0.9-1c-5.5-0.7-10.2-3.2-14.1-7c-6.4-6.1-10.4-13.7-13.1-22c-1.9-5.9-3-11.9-3.6-18c0-0.2,0-0.4-0.2-0.5
			C7.6,42.4,7.6,41.2,7.6,39.9z"/>
		<path fill="#FEDB63" d="M39.5,39.1c0-2.9,0.1-5.7,0.1-8.6c0-4.7,0-9.5,0-14.2c0-4.3,2.6-7.8,6.8-9c0.1,0,0.2-0.1,0.4-0.1
			c1.2-0.3,2.4-0.3,3.6-0.1c1.7,0.3,3.2,1.2,4.5,2.4c1.7,1.7,2.7,3.7,2.9,6c0.1,1.2-0.4,2-1.4,2.1c-1,0.1-1.5-0.5-1.7-1.7
			c-0.3-3.1-2.5-5.4-5.2-5.7c-3.1-0.3-5.7,1.4-6.6,4.2c-0.1,0.4-0.2,0.9-0.2,1.4c0,7.5,0,15.1,0,22.6c0,0.3,0.1,0.6,0.1,0.8
			C41.6,39.1,40.5,39.1,39.5,39.1z"/>
		<path fill="#FEC106" d="M39.5,39.1c1.1,0,2.1,0,3.2,0c1.2-0.1,1.5,0.8,1.8,1.7c3.8,10.5,7.5,20.9,11.3,31.4c0.1,0.3,0.2,0.5,0.4,1
			c0.9-2.4,1.7-4.7,2.5-6.9c3.1-8.6,6.3-17.2,9.4-25.7c0.4-1,0.9-1.5,2-1.4c0.8,0.1,1.6,0,2.4,0c2.1,0,2.2,0.2,1.8,2.2
			c-1.2,3-2.4,6.1-3.6,9.1c-3.5,9-7,18.1-10.4,27.1c-0.4,1.2-1.3,1.7-2.5,1.7c-1.3,0-2.6,0.1-3.8,0c-1.2-0.1-2.1-0.4-2.5-1.7
			c-2.5-7.1-5-14.1-7.6-21.2c-1-2.7-1.9-5.4-3-8.3c-1.7,5-3.3,9.8-4.9,14.6c-1.6,4.9-3.3,9.8-4.9,14.8c-0.4,1.3-1.2,1.8-2.5,1.8
			c-0.3,0-0.6,0-0.8,0c-5.8,0-4.8,0.3-6.7-4.7c-3.5-9-6.9-18-10.4-27c-1-2.5-2.2-5-2.7-7.6c0.2-0.6,0.7-0.7,1.3-0.7
			c1.2,0,2.3,0,3.5,0c1,0,1.6,0.4,1.9,1.4c3.3,9.2,6.7,18.3,10,27.4c0.6,1.7,1.3,3.4,2,5.4c0.9-2.7,1.7-5.1,2.5-7.5
			c2.8-8.4,5.6-16.7,8.3-25.1C37.9,39.7,38.3,39,39.5,39.1z"/>
		<path fill="#FEC106" d="M81.7,70.3c-2.1,0-4.2,0-6.4,0c-0.8,0-1.1,0.2-0.9,1.2c0.9,3.4,3.4,5.6,6.7,5.5c1.9,0,3.5-0.9,4.7-2.3
			c0.2-0.2,0.3-0.5,0.6-0.6c0.4-0.3,0.8-0.1,1.1,0.2c0.4,0.3,0,0.6-0.1,0.8c-2,2.7-5.7,4-8.9,3c-3-0.9-5.7-4.4-5.8-7.5
			c-0.2-4.1,1.5-7.4,4.8-8.8c4.5-1.9,8.7,0.1,10.6,4c0.5,1,0.8,2.2,0.8,3.3c0,0.9-0.2,1.3-1.2,1.3C85.8,70.3,83.7,70.3,81.7,70.3z
			 M80.8,68.9c1.9,0,3.8,0,5.8,0c0.4,0,1,0.1,0.9-0.6c-0.7-3.7-3.7-6.4-7.4-5.9c-3.3,0.4-5,2.7-5.7,5.6c-0.2,0.8,0.1,1,0.8,1
			C77.1,68.9,78.9,68.9,80.8,68.9z"/>
		<path fill="#FEC106" d="M104.1,71.3c0,1.3,0,2.6,0,3.8c0,0.6,0.1,1.1,0.5,1.6c0.4,0.4,0.5,0.9,0,1.2c-0.4,0.3-0.9,0.1-1.3-0.3
			c-0.2-0.3-0.4-0.6-0.5-1c0-0.4,0.2-0.9-0.3-1c-0.4-0.1-0.7,0.4-0.9,0.7c-2.4,2.1-6.4,2.6-8.7,1.1c-1.7-1.1-2.6-2.7-2.4-4.8
			c0.2-2,1.5-3.1,3.3-3.8c2.4-0.9,4.8-0.8,7.3-0.1c1.3,0.4,1.4,0.2,1.5-1c0.4-4.4-3.7-6.8-8.1-4.9c-0.6,0.3-1.1,0.6-1.7,0.9
			c-0.3,0.2-0.6,0.3-0.9,0c-0.3-0.4-0.1-0.7,0.2-0.9c2.5-1.7,5.2-2.4,8-1.4c2.8,1,3.8,3.3,3.9,6.2C104.2,68.8,104.1,70.1,104.1,71.3
			z M97.8,69.4c-1.1-0.2-2.2,0.1-3.2,0.5c-1.4,0.4-2.4,1.3-2.6,2.8c-0.2,1.4,0.3,2.5,1.4,3.4c1.9,1.6,4.1,1.2,6.1,0.5
			c2.8-1.1,3.7-2.9,3.3-5.7c-0.1-0.5-0.4-0.8-0.8-0.9C100.5,69.8,99.2,69.2,97.8,69.4z"/>
		<path fill="#FEC106" d="M87.3,48.3c-2.1,0-4.2,0-6.2,0c-0.9,0-1.2,0.3-1,1.2c0.7,2.6,2.1,4.6,4.7,5.4c2.8,0.9,5.4,0.2,7.3-2.2
			c0.3-0.4,0.7-0.8,1.2-0.4c0.6,0.4,0,0.8-0.2,1c-2.2,2.8-5.2,3.4-8.4,2.7c-2.9-0.7-4.8-2.8-5.7-5.7c-1.4-4.5,0.4-8.8,4.4-10.7
			c4.1-1.9,8.8,0,10.6,3.9c0.5,1.1,0.8,2.2,0.9,3.5c0.1,0.9-0.3,1.2-1.2,1.2C91.6,48.3,89.4,48.3,87.3,48.3z M86.7,47.1
			c2,0,3.9,0,5.9,0c0.5,0,1.2,0,1-0.8c-0.6-3.5-3.2-6.2-6.9-6.2c-3.3,0-5.8,2.3-6.7,5.8c-0.2,1,0.1,1.2,1,1.2
			C82.9,47.1,84.8,47.1,86.7,47.1z"/>
		<path fill="#FEC106" d="M110.4,49.1c0,1.3,0,2.6,0,3.8c0,0.7,0,1.4,0.6,2c0.3,0.3,0.4,0.7,0,1.1c-0.4,0.3-0.8,0.2-1.2-0.1
			c-0.4-0.4-0.6-0.9-0.6-1.4c0-0.8-0.3-1-0.9-0.4c-1.9,1.9-4.1,2.4-6.7,2.3c-2.4-0.1-4.6-1.9-4.9-4.1c-0.4-2.4,0.9-4.3,3.4-5.2
			c2.4-0.9,4.8-0.8,7.3-0.2c1.5,0.4,1.8,0.3,1.8-1.3c-0.1-4.6-4-6.5-8.3-4.8c-0.6,0.3-1.2,0.6-1.8,0.9c-0.3,0.2-0.6,0.3-0.9,0
			c-0.2-0.4,0-0.7,0.3-0.9c1.3-0.7,2.5-1.5,4.1-1.6c1.4-0.1,2.8-0.3,4.1,0.3c2.5,1.1,3.7,3.1,3.7,5.8
			C110.4,46.5,110.4,47.8,110.4,49.1z M103.9,47.3c-1.1-0.2-2.2,0.1-3.2,0.5c-1.3,0.5-2.4,1.3-2.7,2.8c-0.3,1.6,0.2,2.9,1.5,3.8
			c2.4,1.7,4.9,1,7.2-0.2c1.9-1,2.7-2.8,2.3-5.2c-0.1-0.7-0.5-1-1.1-1.1C106.7,47.7,105.4,47.1,103.9,47.3z"/>
		<path fill="#FEC106" d="M124.7,44.2c0-3.4,0-6.8,0-10.2c0-0.2,0-0.5,0-0.7c0-0.5,0.1-1,0.7-1c0.6,0,0.6,0.5,0.7,1
			c0,0.2,0,0.3,0,0.5c0,2.7,0,5.4,0,8c0,0.3-0.2,0.8,0.3,1c0.4,0.2,0.6-0.3,0.8-0.6c1.5-2,3.4-3.2,6-3.1c2.6,0.1,4.3,1.4,4.9,4
			c0.3,1.2,0.4,2.4,0.4,3.7c0,2.9,0,5.8,0.1,8.6c0,0.5-0.1,0.8-0.6,0.8c-0.7,0.1-0.7-0.4-0.7-0.9c0-2.9,0-5.8,0-8.8
			c0-0.9-0.1-1.8-0.3-2.7c-0.8-3.3-3.4-4.2-6.4-2.9c-2.8,1.2-4.4,3.4-4.3,6.7c0.1,2.5,0,5,0,7.6c0,0.5,0.1,1.1-0.7,1.1
			c-0.8,0-0.7-0.6-0.7-1.1C124.7,51.4,124.7,47.8,124.7,44.2z"/>
		<path fill="#FEC106" d="M150.7,48.2c-2.1,0-4.2,0-6.2,0c-1.3,0-1.5,0.2-1.1,1.5c0.8,2.9,2.5,4.9,5.6,5.5c2.6,0.5,4.8-0.3,6.5-2.4
			c0.3-0.4,0.8-0.7,1.2-0.4c0.4,0.4-0.1,0.7-0.3,1c-2.1,2.8-5.2,3.3-8.3,2.6c-3-0.6-4.8-2.9-5.7-5.8c-1.4-4.6,0.7-8.9,5-10.9
			c2.8-1.2,7,0,9,2.7c1.1,1.5,1.7,3.2,1.8,5.1c0,0.8-0.2,1-1,1C155,48.2,152.8,48.2,150.7,48.2z M150,47.1
			C150,47.1,150,47.1,150,47.1c2,0,3.9,0,5.9,0c0.9,0,1.2-0.3,1-1.2c-0.7-3.3-3.6-5.8-6.8-5.9c-3.3,0-6,2.4-6.8,5.8
			c-0.3,1.1,0.2,1.3,1.1,1.3C146.3,47.1,148.1,47.1,150,47.1z"/>
		<path fill="#FEC106" d="M115.7,47.4c0-2,0-3.9,0-5.9c0-0.8-0.3-1.2-1.1-1.1c-0.2,0-0.4,0-0.6,0c-0.4-0.1-0.8-0.1-0.7-0.6
			c0-0.5,0.4-0.6,0.8-0.7c0.2,0,0.5,0,0.7,0c0.7,0.1,0.9-0.3,0.9-0.9c0-1.3,0-2.6,0-3.8c0-0.6,0-1.1,0.7-1.1c0.7,0,0.7,0.5,0.7,1.1
			c-0.1,1.3,0,2.6,0,4c0,0.6,0.2,0.9,0.8,0.9c0.8,0,1.6,0,2.4,0c0.5,0,0.8,0.2,0.8,0.7c0,0.4-0.4,0.6-0.8,0.6c-0.8,0-1.5,0-2.3,0
			c-0.7,0-1,0.3-1,1c0,3.8,0,7.5,0,11.3c0,1.8,1.5,2.6,3.5,2c0.3-0.1,0.6-0.2,0.9-0.4c0.4-0.1,0.6,0,0.8,0.4c0.1,0.3,0,0.5-0.3,0.7
			c-1,0.9-3.9,1-5,0.2c-0.9-0.6-1.3-1.4-1.2-2.4C115.7,51.4,115.7,49.4,115.7,47.4z"/>
		<path fill="#FEC106" d="M161.5,47.6c0-2.4,0-4.9,0-7.3c0-0.5-0.1-1.1,0.7-1.1c0.8,0,0.7,0.6,0.7,1.2c0,0.6,0,1.2,0,1.8
			c0,0.2-0.1,0.5,0.2,0.6c0.3,0.1,0.4-0.2,0.6-0.4c1-1.3,2.1-2.4,3.7-2.9c0.3-0.1,0.5-0.2,0.8-0.3c0.5,0,1-0.2,1.2,0.5
			c0.2,0.7-0.4,0.8-0.9,0.9c-2.3,0.5-4.1,1.8-5.2,4c-0.3,0.6-0.4,1.3-0.4,2c0,2.8,0,5.7,0,8.5c0,0.5,0.1,1.1-0.7,1.1
			c-0.8,0-0.7-0.6-0.7-1.1C161.5,52.5,161.5,50.1,161.5,47.6z"/>
		<path fill="#FEC106" d="M108.6,69.8c0-2.5,0-5,0-7.6c0-0.5,0-0.9,0.6-0.9c0.6,0,0.8,0.4,0.7,1c-0.1,0.6,0,1.3,0,1.9
			c0,0.3,0,0.6,0.4,0.7c0.3,0.1,0.4-0.2,0.5-0.4c0.9-1.4,2.2-2.2,3.6-2.8c0.3-0.1,0.7-0.2,1-0.2c0.4,0,0.8,0,0.8,0.5
			c0.1,0.5-0.2,0.7-0.6,0.8c-1.7,0.4-3.2,1.1-4.3,2.4c-0.9,1.1-1.4,2.3-1.4,3.7c0,2.8,0,5.6,0.1,8.4c0,0.5-0.1,0.9-0.7,0.9
			c-0.6,0-0.7-0.3-0.7-0.8C108.6,74.7,108.6,72.2,108.6,69.8z"/>
	</g>
</g>
</svg>
