<?xml version="1.0" encoding="UTF-8" standalone="no"?>
<svg width="62px" height="62px" viewBox="0 0 62 62" version="1.1" xmlns="http://www.w3.org/2000/svg" xmlns:xlink="http://www.w3.org/1999/xlink">
    <!-- Generator: Sketch 3.7.2 (28276) - http://www.bohemiancoding.com/sketch -->
    <title>Group 4</title>
    <desc>Created with Sketch.</desc>
    <defs></defs>
    <g id="Page-1" stroke="none" stroke-width="1" fill="none" fill-rule="evenodd">
        <g id="Desktop" transform="translate(-935.000000, -24.000000)">
            <g id="Group-4" transform="translate(937.000000, 26.000000)">
                <circle id="Oval-1-Copy-2" stroke="#FFFFFF" stroke-width="3" cx="29" cy="29" r="29"></circle>
                <g id="Layer_1" transform="translate(10.000000, 7.000000)">
                    <path d="M8.35384615,8.29583333 C9.13846154,8.43333333 9.36923077,8.3875 9.69230769,8.3875 C10.1076923,8.3875 10.3384615,8.34166667 10.3384615,8.34166667 C10.3384615,8.34166667 10.4769231,8.02083333 10.5230769,7.92916667 C10.6153846,7.65416667 10.8,7.2875 10.8461538,7.05833333 C10.9846154,6.64583333 11.1230769,5.82083333 11.0307692,5.27083333 C11.0307692,5.17916667 10.9384615,5.04166667 10.8461538,4.99583333 C10.8,4.95 10.5692308,4.90416667 10.4769231,4.90416667 C10.3846154,4.90416667 10.2,5.13333333 10.2,5.13333333 C10.2,5.13333333 10.1538462,4.8125 10.0615385,4.76666667 C9.96923077,4.72083333 9.73846154,4.675 9.64615385,4.72083333 C9.55384615,4.76666667 9.36923077,4.99583333 9.36923077,4.99583333 C9.36923077,4.99583333 9.27692308,4.72083333 9.18461538,4.675 C9.09230769,4.62916667 8.81538462,4.62916667 8.76923077,4.675 C8.67692308,4.76666667 8.58461538,4.95 8.58461538,4.95 C8.58461538,4.95 8.53846154,3.80416667 8.4,3.4375 C8.35384615,3.3 8.35384615,3.1625 8.21538462,3.11666667 C8.12307692,3.07083333 7.93846154,3.11666667 7.84615385,3.1625 C7.75384615,3.25416667 7.70769231,3.48333333 7.70769231,3.62083333 C7.66153846,4.2625 7.75384615,6.1875 7.75384615,6.1875 C7.75384615,6.1875 7.38461538,5.54583333 7.24615385,5.3625 C7.15384615,5.27083333 7.01538462,5.17916667 6.87692308,5.17916667 C6.78461538,5.17916667 6.64615385,5.31666667 6.6,5.40833333 C6.55384615,5.54583333 6.69230769,5.86666667 6.69230769,6.00416667 C6.83076923,6.55416667 7.43076923,7.51666667 7.66153846,7.975 C7.70769231,8.02083333 7.75384615,8.20416667 7.75384615,8.20416667 C7.75384615,8.20416667 8.16923077,8.25 8.35384615,8.29583333 L8.35384615,8.29583333 Z" id="Shape" fill="#000000"></path>
                    <path d="M7.75384615,8.34166667 C7.75384615,8.34166667 8.35384615,8.43333333 8.53846154,8.47916667 C8.76923077,8.525 9.18461538,8.57083333 9.41538462,8.57083333 C9.64615385,8.57083333 10.2923077,8.525 10.2923077,8.525 L10.3384615,9.2125 C10.3384615,9.2125 9.87692308,9.30416667 9.73846154,9.30416667 C9.46153846,9.30416667 9,9.25833333 8.72307692,9.25833333 C8.53846154,9.2125 8.16923077,9.16666667 7.98461538,9.12083333 C7.89230769,9.075 7.66153846,9.02916667 7.66153846,9.02916667" id="Shape" fill="#000000"></path>
                    <path d="M5.35384615,43.6333333 C4.15384615,43.0375 4.01538462,42.075 4.06153846,40.8833333 C4.10769231,36.3 4.06153846,31.6708333 4.06153846,27.0875 L4.06153846,20.8541667 L4.06153846,20.3958333 C4.06153846,20.2583333 3.96923077,20.1666667 3.78461538,20.1666667 C3.6,20.1666667 3.50769231,20.2125 3.46153846,20.3958333 C3.46153846,20.5791667 3.41538462,20.7625 3.41538462,20.9458333 L3.41538462,28.4625 C3.41538462,29.3333333 2.95384615,29.975 2.21538462,30.1583333 C1.15384615,30.4333333 0.230769231,29.6541667 0.230769231,28.5541667 L0.230769231,18.3791667 L0.230769231,16.775 C0.276923077,14.8041667 1.43076923,13.475 3.41538462,13.4291667 C6.6,13.3375 9.78461538,13.3375 13.0153846,13.4291667 C15,13.475 16.2461538,14.7125 16.2461538,16.6833333 C16.2923077,20.6708333 16.2923077,24.6583333 16.2923077,28.6 C16.2923077,29.6083333 15.6,30.2958333 14.6769231,30.2958333 C13.8,30.2958333 13.1076923,29.5625 13.1076923,28.6 L13.1076923,20.8083333 L13.1076923,20.4416667 C13.1076923,20.3041667 13.0153846,20.2125 12.8769231,20.2125 C12.6923077,20.2125 12.5538462,20.2583333 12.5538462,20.4416667 L12.5538462,20.9 L12.5538462,41.2041667 C12.5538462,42.4416667 12.2769231,43.5416667 10.9846154,43.7708333 C10.7076923,43.8166667 10.0615385,43.6791667 9.96923077,43.6333333 C9.04615385,43.2208333 8.76923077,42.5333333 8.76923077,41.5708333 L8.76923077,29.4708333 L8.76923077,29.15 C8.76923077,28.7375 8.49230769,28.6458333 8.16923077,28.7375 C7.75384615,28.8291667 7.8,29.15 7.8,29.4708333 L7.8,41.8 C7.8,42.2583333 7.70769231,42.6708333 7.43076923,43.0375 C7.15384615,43.45 6.69230769,43.6791667 6.23076923,43.8166667 C6,43.7708333 5.35384615,43.6333333 5.35384615,43.6333333 L5.35384615,43.6333333 Z" id="Shape" fill="#FFFFFF"></path>
                    <path d="M29.3538462,25.1625 L23.5384615,25.1625 C23.0307692,25.1625 22.7076923,24.8416667 22.7076923,24.3375 C22.7076923,21.725 22.7076923,19.1125 22.6615385,16.5 L22.6615385,14.8958333 C22.6615385,14.7583333 22.7076923,14.575 22.5692308,14.4833333 C22.3846154,14.4375 22.2923077,14.6208333 22.2,14.7125 C21.7846154,15.1708333 21.4153846,15.675 21,16.1333333 C20.6769231,16.5 20.3538462,16.5458333 20.0307692,16.1791667 C19.2,15.4 18.4153846,14.575 17.5846154,13.7958333 C17.2615385,13.475 17.2615385,13.1541667 17.5384615,12.8333333 C18.6461538,11.4583333 19.7076923,10.0833333 21.0461538,8.89166667 C21.3692308,8.61666667 21.7384615,8.3875 22.1538462,8.25 C23.3076923,7.88333333 24.4615385,7.5625 25.6615385,7.19583333 C26.1230769,7.05833333 26.4923077,7.05833333 26.9076923,7.37916667 C27.3230769,7.7 27.8307692,7.8375 28.3384615,7.88333333 C29.6769231,7.975 31.0153846,8.1125 32.2153846,7.19583333 C32.4923077,7.0125 32.7692308,7.0125 33.0461538,7.10416667 C34.3384615,7.47083333 35.6307692,7.88333333 36.9230769,8.29583333 C37.2461538,8.3875 37.4769231,8.57083333 37.7076923,8.75416667 C39.0923077,9.94583333 40.2,11.4125 41.3538462,12.7875 C41.6307692,13.1083333 41.6307692,13.4291667 41.3076923,13.7041667 C40.4769231,14.5291667 39.6461538,15.3541667 38.8153846,16.1333333 C38.4923077,16.4541667 38.1692308,16.4541667 37.8923077,16.0875 C37.5230769,15.6291667 37.1076923,15.1708333 36.7384615,14.6666667 C36.6461538,14.5291667 36.5076923,14.3 36.3230769,14.3458333 C36.0923077,14.3916667 36.1846154,14.6666667 36.1846154,14.85 C36.1846154,17.1416667 36.1384615,19.4333333 36.1846154,21.725 C36.1846154,22.55 36.0461538,23.375 36.1384615,24.2 C36.1846154,24.7041667 35.8153846,25.025 35.2615385,25.025 C33.2769231,25.1625 31.3384615,25.1625 29.3538462,25.1625 L29.3538462,25.1625 Z" id="Shape" fill="#FFFFFF"></path>
                    <path d="M29.4923077,27.2708333 L35.2615385,27.2708333 C36.1846154,27.2708333 36.2307692,27.2708333 36.2307692,28.1875 C36.2307692,30.7541667 36.2307692,33.3666667 36.2769231,35.9333333 C36.2769231,36.8958333 35.9076923,37.2625 34.9384615,37.2625 L30.9692308,37.2625 C30.1846154,37.2625 30.0923077,37.1708333 30.0923077,36.3916667 L30.0923077,34.6958333 C30.0923077,34.2833333 30,33.9625 29.4923077,33.9625 C29.0307692,33.9625 28.9846154,34.375 28.9846154,34.7416667 C28.9384615,35.4291667 29.0307692,36.1166667 28.9384615,36.8041667 C28.8923077,37.1708333 28.7076923,37.2625 28.3846154,37.2625 L23.7692308,37.2625 C23.2153846,37.2625 22.7538462,36.8041667 22.7538462,36.2541667 L22.7538462,28.5541667 L22.7538462,28.2791667 C22.7538462,27.2708333 22.7538462,27.2708333 23.7692308,27.2708333 C25.6153846,27.2708333 27.5538462,27.2708333 29.4923077,27.2708333 L29.4923077,27.2708333 Z" id="Shape" fill="#FFFFFF"></path>
                    <path d="M7.70769231,0.366666667 C8.21538462,0.320833333 8.58461538,0.320833333 9.04615385,0.366666667 C12.5076923,0.6875 14.4,4.44583333 13.2,7.5625 C12.3230769,9.85416667 9.83076923,11.1833333 7.38461538,10.725 C4.98461538,10.3125 3.18461538,8.20416667 3.09230769,5.82083333 C3,3.3 4.66153846,1.1 7.06153846,0.504166667 C7.24615385,0.458333333 7.47692308,0.4125 7.70769231,0.366666667 L7.70769231,0.366666667 Z" id="Shape" fill="#FFFFFF"></path>
                </g>
            </g>
        </g>
    </g>
</svg>